# xmcd
#
# Track frame offsets:
#	150
#	20515
#	31316
#	54997
#	76249
#	86924
#	102362
#	115754
#	125590
#	135510
#	147823
#	164951
#	181779
#	198786
#
# Disc length: 2835 seconds
#
# Revision: 1
# Processed by: cddbd v1.5.2PL0 Copyright (c) Steve Scherf et al.
# Submitted via: audiograbber 1.82.02
#
DISCID=b80b110e
DTITLE=Freddy Fender - Close to My Heart
DYEAR=2008
DGENRE=Latian
TTITLE0=Margaritaville
TTITLE1=My Blue Heaven
TTITLE2=Que
TTITLE3=Stormy-Monday
TTITLE4=Another Shot of Ambition
TTITLE5=Cowboy Cumbia
TTITLE6=You Send Me
TTITLE7=Amor No Fumes En La Cama
TTITLE8=Six Days on The Road
TTITLE9=Porque Encontre
TTITLE10=Yesterday
TTITLE11=Going Down
TTITLE12=Crazy
TTITLE13=La Paloma
EXTD=
EXTT0=
EXTT1=
EXTT2=
EXTT3=
EXTT4=
EXTT5=
EXTT6=
EXTT7=
EXTT8=
EXTT9=
EXTT10=
EXTT11=
EXTT12=
EXTT13=
PLAYORDER=
